<svg xmlns="http://www.w3.org/2000/svg" viewBox="0 0 1200 1200" 
shape-rendering="geometricPrecision" text-rendering="geometricPrecision" 
width="46px" height="46px" fill="currentColor">
    <g transform="matrix(.3 0 0-.3-1200.75 2737.350147)">
        <path d="M5540,8806c-250-145-626-362-835-483l-380-220v-1956l405
        -234c223-129,600-347,837-484l433-249l837,484l838,484l3,976l2,
        975-22,14c-48,30-1657,957-1660,956-2,0-208-119-458-263Zm1236
        -348l764-441v-1784l-764-441c-420-243-769-442-776-442-10,0-483,
        269-825,470-44,26-223,129-397,230l-318,184v1783l388,224c213,
        123,556,321,762,441s381,218,389,218s357-199,777-442Zm-927-587c
        -75-42-144-82-153-90-12-10-16-31-16-81v-67l-177-99-178-99-10
        -336-65-38-65-37v-367l150-84c83-45,155-83,162-83c6,0,27,9,46,
        20l35,21l207-116c114-63,211-115,215-115s101,52,215,115l207,
        116l35-21c19-11,39-20,45-20c12,0,272,140,300,162c14,11,17,38,
        19,192l3,179-69,37-70,37-10,338-175,98-175,97-2,68c-2,93-2,
        92-15,92-7,0-78,36-157,80s-149,80-155,79-72-36-147-78Zm260
        -51c55-30,100-59,98-64s-49-33-105-63l-102-55-102,55c-56,30-103,
        58-105,63-3,9,196,124,208,121c4-1,52-27,108-57Zm-249-179l105
        -58l3-122c2-96,0-122-10-119-7,2-59,28-115,58l-103,55l1,123c0,
        67,3,122,7,122c4-1,54-27,112-59Zm397-63l-2-122-104-58c-57-32
        -108-58-113-58s-7,54-6,122l3,121l105,58c58,32,108,58,112,59c4,
        0,6-55,5-122Zm-575-95l3-68l314-176l316,176l3,68c2,37,6,67,10,
        67s70-35,147-78l140-77l3-128c1-70-1-127-5-127s-26,11-48,25c-22,
        13-48,25-58,25-20,0-307-156-319-174-4-6-8-86-8-177c0-190-8-172,
        103-233c38-21,67-39,65-41-2-1-81-46-175-99l-173-96-172,96c-95,
        53-174,98-176,99-2,2,27,20,65,41c111,61,103,42,103,245c0,175,0,
        178-22,185-13,4-82,40-155,80-72,41-139,74-150,74-10,0-36-12-58
        -25-22-14-44-25-48-25s-6,57-5,127l3,128l140,77c77,43,143,78,147,
        78s8-30,10-67Zm-76-420c57-32,104-60,104-63s-48-31-107-62l-107
        -56-108,56c-59,31-108,59-108,62c0,6,201,119,214,120c5,0,55-26,
        112-57Zm1013-2c119-68,122-53-29-134l-84-46-108,57c-59,31-108,
        59-108,62c0,7,203,120,215,119c6,0,57-26,114-58ZM5356,6884l104-56v
        -249l-77,42c-43,23-93,51-110,61l-33,20v119c0,65,3,119,6,119s53-25,
        110-56Zm394-63c0-83-4-122-12-128-7-6-57-34-110-63l-98-52v250l103,
        56c56,30,105,55,110,56c4,0,7-53,7-119Zm616,62l104-56v-249l-97,
        52c-54,29-104,57-110,63-9,6-13,45-13,128c0,66,3,119,6,119s53-26,
        110-57Zm394-62v-119l-32-20c-18-10-68-38-110-61l-78-42v249l103,
        56c56,30,105,56,110,56c4,0,7-54,7-119Z" fill="#2787f5"></path>
    </g>
</svg>