<?xml version="1.0" standalone="no"?>
<!DOCTYPE svg PUBLIC "-//W3C//DTD SVG 20010904//EN"
 "http://www.w3.org/TR/2001/REC-SVG-20010904/DTD/svg10.dtd">
<svg version="1.0" xmlns="http://www.w3.org/2000/svg"
 width="600.000000pt" height="600.000000pt" viewBox="0 0 600.000000 600.000000"
 preserveAspectRatio="xMidYMid meet">

<g transform="translate(0.000000,600.000000) scale(0.100000,-0.100000)"
fill="#000000" stroke="none">
<path d="M2820 5053 c-147 -16 -327 -66 -442 -124 -218 -110 -408 -312 -502
-536 -94 -222 -98 -398 -20 -759 l26 -120 -26 -52 c-37 -73 -56 -163 -56 -267
0 -180 54 -326 164 -443 l63 -67 88 -265 c48 -146 107 -304 131 -352 37 -73
44 -97 44 -145 0 -131 -66 -295 -166 -417 -103 -124 -181 -176 -597 -391 -210
-109 -586 -303 -834 -433 l-453 -235 0 -223 0 -224 2765 0 2765 0 0 223 0 222
-168 87 c-92 47 -460 237 -818 421 -359 184 -674 349 -700 368 -72 49 -200
175 -250 246 -54 75 -99 172 -119 256 -25 107 -21 136 39 255 38 75 78 184
132 357 l77 250 63 67 c113 121 165 260 165 443 0 122 -17 203 -57 274 l-25
45 20 85 c36 152 61 336 62 443 0 126 -21 209 -90 353 -178 368 -508 603 -923
655 -78 9 -281 11 -358 3z"/>
</g>
</svg>
