<?xml version="1.0" standalone="no"?>
<!DOCTYPE svg PUBLIC "-//W3C//DTD SVG 20010904//EN"
 "http://www.w3.org/TR/2001/REC-SVG-20010904/DTD/svg10.dtd">
<svg version="1.0" xmlns="http://www.w3.org/2000/svg"
 width="529.000000pt" height="525.000000pt" viewBox="0 0 529.000000 525.000000"
 preserveAspectRatio="xMidYMid meet">

<g transform="translate(0.000000,525.000000) scale(0.100000,-0.100000)"
fill="#000000" stroke="none">
<path d="M2541 3399 c-224 -37 -449 -202 -553 -404 -80 -156 -108 -304 -88
-456 26 -190 105 -345 246 -478 146 -139 327 -211 529 -211 329 0 630 214 736
523 39 116 53 228 40 336 -14 116 -34 178 -89 286 -83 162 -254 310 -429 370
-123 43 -264 55 -392 34z"/>
<path d="M975 2491 c-204 -58 -357 -222 -400 -426 -18 -88 -18 -132 0 -219 31
-145 115 -271 232 -349 97 -63 171 -88 278 -94 113 -7 184 8 283 57 289 145
393 504 226 781 -44 74 -149 171 -224 209 -118 60 -275 76 -395 41z"/>
<path d="M4129 2499 c-266 -63 -452 -308 -436 -574 18 -296 260 -525 555 -525
151 0 275 53 388 165 113 111 164 233 164 390 0 155 -51 276 -165 391 -77 78
-175 133 -273 153 -61 13 -181 13 -233 0z"/>
<path d="M2450 1596 c-324 -58 -571 -186 -801 -416 -266 -265 -418 -607 -422
-952 -2 -116 -2 -118 26 -145 l27 -28 1395 0 1395 0 27 28 c28 27 28 29 26
145 -4 345 -156 687 -422 952 -213 213 -447 340 -741 405 -102 23 -408 29
-510 11z"/>
<path d="M911 1145 c-292 -66 -526 -232 -673 -477 -81 -137 -138 -330 -138
-476 0 -71 1 -75 34 -108 l34 -34 414 0 413 0 1 168 c1 184 17 289 74 464 37
112 120 287 183 383 41 62 44 71 29 79 -29 17 -299 17 -371 1z"/>
<path d="M4097 1151 c-20 -4 -39 -10 -41 -12 -3 -2 16 -36 41 -74 63 -96 146
-271 183 -383 57 -175 73 -280 74 -464 l1 -168 414 0 413 0 34 34 c33 33 34
37 34 108 0 92 -28 230 -68 331 -112 288 -362 514 -667 603 -75 22 -114 27
-235 30 -80 1 -162 -1 -183 -5z"/>
</g>
</svg>
