<?xml version="1.0" standalone="no"?>
<!DOCTYPE svg PUBLIC "-//W3C//DTD SVG 20010904//EN"
 "http://www.w3.org/TR/2001/REC-SVG-20010904/DTD/svg10.dtd">
<svg version="1.0" xmlns="http://www.w3.org/2000/svg"
 width="512.000000pt" height="512.000000pt" viewBox="0 0 512.000000 512.000000"
 preserveAspectRatio="xMidYMid meet">

<g transform="translate(0.000000,512.000000) scale(0.100000,-0.100000)"
fill="#000000" stroke="none">
<path d="M0 2560 l0 -2560 2560 0 2560 0 0 2560 0 2560 -2560 0 -2560 0 0
-2560z m1510 170 c0 -44 -4 -60 -14 -60 -8 0 -16 15 -20 38 -11 66 -8 82 14
82 18 0 20 -7 20 -60z m385 -105 c0 -144 -2 -160 -17 -163 -17 -3 -18 10 -18
163 0 153 1 166 18 163 15 -3 17 -19 17 -163z m735 0 c0 -158 -1 -165 -20
-165 -11 0 -20 7 -20 16 0 14 -2 14 -22 0 -77 -54 -160 32 -129 135 19 63 79
88 129 53 l22 -15 0 70 c0 64 2 71 20 71 19 0 20 -7 20 -165z m-1725 125 c24
-9 43 -35 33 -45 -2 -3 -23 2 -45 11 -75 29 -123 -15 -123 -112 0 -88 53 -130
126 -99 21 8 39 13 42 11 10 -11 -9 -37 -33 -46 -104 -40 -196 42 -181 158 14
104 91 156 181 122z m725 -40 c0 -28 3 -30 35 -30 24 0 35 -5 35 -15 0 -11
-11 -15 -36 -15 l-36 0 4 -71 c4 -74 14 -91 50 -81 16 4 19 1 16 -14 -4 -24
-55 -31 -83 -10 -16 12 -20 29 -23 95 -3 61 -8 81 -18 81 -8 0 -14 7 -14 15 0
8 7 15 15 15 9 0 15 9 15 23 0 27 7 37 27 37 8 0 13 -12 13 -30z m1920 0 c0
-28 3 -30 35 -30 24 0 35 -5 35 -15 0 -11 -11 -15 -36 -15 l-36 0 4 -71 c4
-74 14 -91 50 -81 16 4 19 1 16 -14 -4 -24 -55 -31 -83 -10 -16 12 -20 29 -23
95 -3 61 -8 81 -18 81 -8 0 -14 7 -14 15 0 8 7 15 15 15 9 0 15 9 15 23 0 27
7 37 27 37 8 0 13 -12 13 -30z m650 0 c0 -28 3 -30 35 -30 24 0 35 -5 35 -15
0 -11 -11 -15 -36 -15 l-36 0 4 -71 c4 -74 14 -91 50 -81 16 4 19 1 16 -14 -4
-24 -55 -31 -83 -10 -16 12 -20 29 -23 95 -3 61 -8 81 -18 81 -8 0 -14 7 -14
15 0 8 7 15 15 15 9 0 15 9 15 23 0 27 7 37 27 37 8 0 13 -12 13 -30z m-3069
-49 c21 -17 24 -29 28 -105 3 -74 1 -87 -14 -92 -9 -4 -20 -2 -24 4 -4 7 -12
8 -21 2 -26 -17 -79 -11 -100 10 -46 46 -12 100 70 108 46 4 50 6 44 26 -4 11
-12 25 -18 29 -11 8 -58 4 -88 -8 -13 -5 -18 -2 -18 9 0 36 102 48 141 17z
m129 3 c0 -14 2 -14 22 0 33 23 75 20 103 -9 23 -22 25 -32 25 -110 0 -78 -2
-85 -20 -85 -18 0 -20 7 -20 75 0 83 -19 119 -59 108 -33 -8 -40 -25 -43 -103
-2 -62 -6 -75 -20 -78 -16 -3 -18 7 -18 107 0 92 3 111 15 111 8 0 15 -7 15
-16z m871 -13 c39 -39 42 -115 6 -157 -34 -39 -112 -46 -151 -13 -52 45 -45
153 13 184 45 25 99 19 132 -14z m220 10 c21 -17 24 -29 28 -105 3 -74 1 -87
-14 -92 -9 -4 -20 -2 -24 4 -4 7 -12 8 -21 2 -26 -17 -79 -11 -100 10 -46 46
-12 100 70 108 46 4 50 6 44 26 -4 11 -12 25 -18 29 -11 8 -58 4 -88 -8 -13
-5 -18 -2 -18 9 0 36 102 48 141 17z m590 9 c10 -6 19 -18 19 -26 0 -16 -19
-15 -64 2 -22 8 -66 -39 -66 -71 0 -61 43 -95 89 -70 37 19 41 19 41 1 0 -22
-40 -46 -77 -46 -19 0 -43 9 -58 23 -48 41 -43 146 9 182 24 17 79 20 107 5z
m230 -19 c39 -39 42 -115 6 -157 -34 -39 -112 -46 -151 -13 -52 45 -45 153 13
184 45 25 99 19 132 -14z m119 13 c0 -14 2 -14 22 0 33 23 75 20 103 -9 23
-22 25 -32 25 -110 0 -78 -2 -85 -20 -85 -18 0 -20 7 -20 75 0 83 -19 119 -59
108 -33 -8 -40 -25 -43 -103 -2 -62 -6 -75 -20 -78 -16 -3 -18 7 -18 107 0 92
3 111 15 111 8 0 15 -7 15 -16z m525 -7 c18 -15 27 -33 28 -57 l2 -35 -77 -3
c-43 -2 -78 -5 -78 -7 0 -2 5 -15 11 -29 14 -30 54 -41 93 -26 36 13 46 13 46
-4 0 -38 -121 -46 -161 -10 -44 39 -32 151 19 178 40 22 87 20 117 -7z m125 7
c0 -14 2 -14 22 0 33 23 75 20 103 -9 23 -22 25 -32 25 -110 0 -78 -2 -85 -20
-85 -18 0 -20 7 -20 75 0 83 -19 119 -59 108 -33 -8 -40 -25 -43 -103 -2 -62
-6 -75 -20 -78 -16 -3 -18 7 -18 107 0 92 3 111 15 111 8 0 15 -7 15 -16z"/>
<path d="M2502 2634 c-11 -7 -23 -25 -26 -40 -9 -35 11 -94 32 -95 54 -4 82
21 82 71 0 55 -50 91 -88 64z"/>
<path d="M1034 2546 c-15 -12 -17 -18 -8 -33 6 -10 19 -19 28 -21 25 -5 66 25
66 48 0 16 -7 20 -33 20 -18 0 -42 -6 -53 -14z"/>
<path d="M2030 2637 c-53 -27 -51 -109 4 -136 41 -19 80 10 84 65 5 62 -37 96
-88 71z"/>
<path d="M2254 2546 c-15 -12 -17 -18 -8 -33 6 -10 19 -19 28 -21 25 -5 66 25
66 48 0 16 -7 20 -33 20 -18 0 -42 -6 -53 -14z"/>
<path d="M3070 2637 c-53 -27 -51 -109 4 -136 41 -19 80 10 84 65 5 62 -37 96
-88 71z"/>
<path d="M3718 2638 c-8 -7 -18 -21 -21 -30 -6 -16 1 -18 53 -18 33 0 60 3 60
8 0 4 -7 18 -16 30 -17 24 -52 29 -76 10z"/>
</g>
</svg>
